<svg xmlns="http://www.w3.org/2000/svg" xmlns:xlink="http://www.w3.org/1999/xlink" width="500" zoomAndPan="magnify" viewBox="0 0 375 374.999991" height="500" preserveAspectRatio="xMidYMid meet" version="1.0"><defs><g/></defs><rect x="-37.5" width="450" fill="#ffffff" y="-37.499999" height="449.999989" fill-opacity="1"/><rect x="-37.5" width="450" fill="#000000" y="-37.499999" height="449.999989" fill-opacity="1"/><g fill="#dc143c" fill-opacity="1"><g transform="translate(116.195868, 313.373188)"><g><path d="M 110.171875 -254.234375 C 123.679688 -254.234375 136.894531 -252.265625 149.8125 -248.328125 C 162.726562 -244.390625 172.3125 -240.503906 178.5625 -236.671875 L 187.640625 -230.625 L 164.640625 -185.21875 C 162.828125 -186.4375 160.304688 -188.003906 157.078125 -189.921875 C 153.847656 -191.835938 147.796875 -194.410156 138.921875 -197.640625 C 130.046875 -200.867188 121.769531 -202.484375 114.09375 -202.484375 C 104.613281 -202.484375 97.300781 -200.460938 92.15625 -196.421875 C 87.007812 -192.390625 84.4375 -186.941406 84.4375 -180.078125 C 84.4375 -176.648438 85.644531 -173.472656 88.0625 -170.546875 C 90.488281 -167.617188 94.628906 -164.488281 100.484375 -161.15625 C 106.335938 -157.832031 111.484375 -155.160156 115.921875 -153.140625 C 120.359375 -151.128906 127.21875 -148.101562 136.5 -144.0625 C 152.632812 -137.207031 166.398438 -127.875 177.796875 -116.0625 C 189.203125 -104.257812 194.90625 -90.894531 194.90625 -75.96875 C 194.90625 -61.644531 192.332031 -49.132812 187.1875 -38.4375 C 182.039062 -27.738281 174.976562 -19.363281 166 -13.3125 C 157.019531 -7.257812 147.082031 -2.769531 136.1875 0.15625 C 125.300781 3.082031 113.5 4.546875 100.78125 4.546875 C 89.882812 4.546875 79.191406 3.429688 68.703125 1.203125 C 58.210938 -1.015625 49.4375 -3.785156 42.375 -7.109375 C 35.3125 -10.441406 28.953125 -13.722656 23.296875 -16.953125 C 17.648438 -20.179688 13.515625 -22.90625 10.890625 -25.125 L 6.96875 -28.453125 L 35.40625 -76.265625 C 37.832031 -74.253906 41.160156 -71.679688 45.390625 -68.546875 C 49.628906 -65.421875 57.144531 -61.234375 67.9375 -55.984375 C 78.738281 -50.742188 88.273438 -48.125 96.546875 -48.125 C 120.554688 -48.125 132.5625 -56.296875 132.5625 -72.640625 C 132.5625 -76.066406 131.703125 -79.242188 129.984375 -82.171875 C 128.273438 -85.097656 125.25 -88.023438 120.90625 -90.953125 C 116.570312 -93.878906 112.738281 -96.195312 109.40625 -97.90625 C 106.082031 -99.625 100.632812 -102.25 93.0625 -105.78125 C 85.5 -109.3125 79.898438 -111.984375 76.265625 -113.796875 C 61.128906 -121.265625 49.425781 -130.597656 41.15625 -141.796875 C 32.882812 -152.992188 28.75 -165.050781 28.75 -177.96875 C 28.75 -200.363281 37.019531 -218.671875 53.5625 -232.890625 C 70.113281 -247.117188 88.984375 -254.234375 110.171875 -254.234375 Z M 110.171875 -254.234375 "/></g></g></g><path stroke-linecap="butt" transform="matrix(1.246881, 0, 0, 1.246881, 31.866953, 7.242436)" fill="none" stroke-linejoin="miter" d="M 131.208831 35.817298 L 131.208831 179.482021 C 131.208831 199.030799 125.817253 213.943008 115.034097 224.20925 C 104.291667 234.478624 88.909535 239.613311 68.884569 239.613311 C 63.511788 239.613311 58.239257 238.961685 53.066976 237.658433 C 47.891562 236.395908 43.527548 234.835765 39.974933 232.978005 C 36.419186 231.123377 33.22058 229.228023 30.375982 227.291942 C 27.572111 225.315134 25.516983 223.698601 24.213731 222.432943 L 22.023892 220.478065 L 36.597757 182.386142 C 46.115255 191.430585 54.764963 195.95124 62.54688 195.95124 C 69.495468 195.95124 75.065617 193.661151 79.25106 189.080972 C 83.477231 184.456935 85.591882 177.370502 85.591882 167.812278 L 85.591882 35.817298 Z M 131.208831 35.817298 " stroke="#000000" stroke-width="18.199949" stroke-opacity="1" stroke-miterlimit="4"/><g fill="#ffffff" fill-opacity="1"><g transform="translate(68.70839, 301.50635)"><g><path d="M 126.78125 -249.609375 L 126.78125 -70.5 C 126.78125 -46.09375 120.070312 -27.484375 106.65625 -14.671875 C 93.238281 -1.867188 74.023438 4.53125 49.015625 4.53125 C 42.359375 4.53125 35.800781 3.722656 29.34375 2.109375 C 22.894531 0.503906 17.453125 -1.457031 13.015625 -3.78125 C 8.578125 -6.101562 4.59375 -8.472656 1.0625 -10.890625 C -2.46875 -13.304688 -5.039062 -15.320312 -6.65625 -16.9375 L -9.375 -19.359375 L 8.78125 -66.859375 C 20.675781 -55.566406 31.46875 -49.921875 41.15625 -49.921875 C 49.820312 -49.921875 56.773438 -52.796875 62.015625 -58.546875 C 67.265625 -64.296875 69.890625 -73.117188 69.890625 -85.015625 L 69.890625 -249.609375 Z M 126.78125 -249.609375 "/></g></g></g></svg>